<?xml version="1.0" encoding="utf-8"?>
<!-- Generator: Adobe Illustrator 22.1.0, SVG Export Plug-In . SVG Version: 6.00 Build 0)  -->
<svg version="1.1" id="Layer_1" xmlns="http://www.w3.org/2000/svg" xmlns:xlink="http://www.w3.org/1999/xlink" x="0px" y="0px"
	 viewBox="0 0 100 100" style="enable-background:new 0 0 100 100;" xml:space="preserve">
<style type="text/css">
	.st0{fill:#FFFFFF;}
</style>
<g>
	<path class="st0" d="M50,0C22.4,0,0,22.4,0,50c0,27.6,22.4,50,50,50s50-22.4,50-50S77.6,0,50,0z M50,90.6
		C27.6,90.6,9.4,72.4,9.4,50S27.6,9.4,50,9.4S90.6,27.6,90.6,50S72.4,90.6,50,90.6z M49.8,35.9c0.4-0.6,0.1-1.4-0.5-1.8l-3.4-2
		c-0.6-0.4-1.4-0.1-1.8,0.5l-5.2,9.2l-5.7,10.1l-4.8,8.4c-0.4,0.6-0.1,1.4,0.5,1.8l3.4,2c0.6,0.4,1.4,0.1,1.8-0.5l6.6-11.7l4.3-7.6
		C45,44.3,49.8,35.9,49.8,35.9z M47.1,46.9l-5.2,9.4h18.4l-4.7-9.4C55.6,46.9,47.1,46.9,47.1,46.9z M32.1,46.9H25
		c-1.7,0-3.1,1.4-3.1,3.1v3.1c0,1.7,1.4,3.1,3.1,3.1h1.5C26.5,56.3,32.1,46.9,32.1,46.9z M31.2,65.6l-3.4-2
		c-0.6-0.4-1.2-0.1-1.3,0.7l-0.6,5.2c-0.1,0.7,0.3,1,0.9,0.6l4.4-3C31.8,66.6,31.8,66,31.2,65.6z M68.2,52l-0.1-0.1L66,47.8l0-0.1
		l-0.2-0.5l-0.2-0.3l-0.2-0.3l-0.3-0.5L65,45.9l-0.3-0.6l-0.1-0.2c-2.4-4.6-5.4-10.2-7.2-13.1c-3.2-5.2-7.6-13.8-8.8-13.2
		c-1.7,0.9,3.5,11.8,5.3,15.9c1.7,4.1,8.5,19.9,9.8,20.6c1.4,0.7,1.9,0.3,2.8-0.1C67.4,54.8,69,53.6,68.2,52z M75,46.9h-6.7l5.4,9.4
		H75c1.7,0,3.1-1.4,3.1-3.1V50C78.1,48.3,76.7,46.9,75,46.9z M72,60.2L70.4,57c-0.4-0.7-1.2-1-1.9-0.6l-1.9,1
		c-0.7,0.4-0.9,1.2-0.5,1.9l2,3.3c0.4,0.7,1.3,0.9,2,0.5l1.4-0.8C72.2,61.8,72.4,60.9,72,60.2z M71.5,64.7c-0.5,0.5-1.7,1.6-0.3,3.6
		c1.5,2.1,4.7,2.2,5.1,3.6C76.4,71.9,77.4,61.3,71.5,64.7z"/>
</g>
</svg>
