<?xml version="1.0" encoding="utf-8"?>
<!-- Generator: Adobe Illustrator 22.1.0, SVG Export Plug-In . SVG Version: 6.00 Build 0)  -->
<svg version="1.1" id="Layer_1" xmlns="http://www.w3.org/2000/svg" xmlns:xlink="http://www.w3.org/1999/xlink" x="0px" y="0px"
	 viewBox="0 0 100 100" style="enable-background:new 0 0 100 100;" xml:space="preserve">
<style type="text/css">
	.st0{fill:#FFFFFF;}
</style>
<g>
	<g>
		<g>
			<path class="st0" d="M20.8,3.6c-2.2-1.4-4.8-1.9-7.3-1.3l43.2,43.2l14-14L20.8,3.6z"/>
		</g>
	</g>
	<g>
		<g>
			<path class="st0" d="M8.1,5.9c-1.2,1.6-1.9,3.6-1.9,5.6v76.9c0,2.1,0.7,4,1.9,5.6L52.2,50L8.1,5.9z"/>
		</g>
	</g>
	<g>
		<g>
			<path class="st0" d="M88.9,41.8l-12.6-7L61.1,50l15.2,15.2l12.6-7c3-1.7,4.8-4.7,4.8-8.2C93.8,46.5,92,43.5,88.9,41.8z"/>
		</g>
	</g>
	<g>
		<g>
			<path class="st0" d="M56.7,54.4L13.5,97.6c0.7,0.2,1.4,0.3,2.2,0.3c1.8,0,3.6-0.5,5.1-1.5l49.9-27.9L56.7,54.4z"/>
		</g>
	</g>
</g>
</svg>
