<?xml version="1.0" encoding="UTF-8"?>
<!DOCTYPE svg PUBLIC "-//W3C//DTD SVG 1.1//EN" "http://www.w3.org/Graphics/SVG/1.1/DTD/svg11.dtd">
<!-- Creator: CorelDRAW X8 -->
<svg xmlns="http://www.w3.org/2000/svg" xml:space="preserve" width="7.38206in" height="8.85239in" version="1.1" style="shape-rendering:geometricPrecision; text-rendering:geometricPrecision; image-rendering:optimizeQuality; fill-rule:evenodd; clip-rule:evenodd"
viewBox="0 0 7382 8852"
 xmlns:xlink="http://www.w3.org/1999/xlink">
 <defs>
  <style type="text/css">
   <![CDATA[
    .fil2 {fill:none}
    .fil0 {fill:#144372}
    .fil3 {fill:#E94055}
    .fil1 {fill:white}
   ]]>
  </style>
    <clipPath id="id0">
     <path d="M997 5571l5389 0 996 3281 -7382 0 997 -3281z"/>
    </clipPath>
 </defs>
 <g id="Layer_x0020_1">
  <metadata id="CorelCorpID_0Corel-Layer"/>
  <g id="_2002361578528">
   <polygon class="fil0" points="997,5571 6386,5571 7382,8852 0,8852 "/>
   <g style="clip-path:url(#id0)">
    <g>
     <g>
      <rect class="fil1" x="1492" y="5085" width="457" height="2693"/>
      <rect class="fil1" x="1492" y="7235" width="7162" height="543"/>
      <rect class="fil1" x="5376" y="4720" width="400" height="4415"/>
     </g>
    </g>
   </g>
   <polygon class="fil2" points="997,5571 6386,5571 7382,8852 0,8852 "/>
   <path class="fil3" d="M1618 2040c0,656 176,963 409,1509 48,112 80,185 129,298l1428 2977c43,87 91,230 166,284 106,-28 99,-80 181,-244l1579 -3324c148,-332 281,-632 362,-989 102,-457 48,-844 -126,-1253 -523,-1236 -2110,-1692 -3204,-916 -110,77 -186,151 -285,237 -158,138 -330,400 -426,591 -101,202 -213,530 -213,830z"/>
   <g>
    <circle class="fil1" cx="3838" cy="1413" r="762"/>
    <path class="fil1" d="M3770 3820c-67,-5 -877,-10 -1123,-10 -245,1 -195,-90 -139,-302 57,-211 400,-1029 465,-1176 93,-208 331,-8 486,59 152,65 364,71 311,71 -52,0 160,-6 312,-71 155,-67 393,-267 486,-59 65,147 408,965 465,1176 56,212 106,303 -140,302 -245,0 -1055,5 -1123,10z"/>
   </g>
  </g>
 </g>
</svg>
