<?xml version="1.0" encoding="UTF-8"?>
<!DOCTYPE svg PUBLIC "-//W3C//DTD SVG 1.1//EN" "http://www.w3.org/Graphics/SVG/1.1/DTD/svg11.dtd">
<!-- Creator: CorelDRAW X8 -->
<svg xmlns="http://www.w3.org/2000/svg" xml:space="preserve" width="7.74954in" height="7.74954in" version="1.1" style="shape-rendering:geometricPrecision; text-rendering:geometricPrecision; image-rendering:optimizeQuality; fill-rule:evenodd; clip-rule:evenodd"
viewBox="0 0 7750 7750"
 xmlns:xlink="http://www.w3.org/1999/xlink">
 <defs>
  <style type="text/css">
   <![CDATA[
    .fil0 {fill:#144372}
    .fil1 {fill:#F36065}
   ]]>
  </style>
 </defs>
 <g id="Layer_x0020_1">
  <metadata id="CorelCorpID_0Corel-Layer"/>
  <g id="_2001475171584">
   <path class="fil0" d="M3663 3451c126,34 172,133 208,248 58,186 -11,206 -27,388 399,-93 790,-242 1181,-333 0,-237 -31,-371 -31,-574 -1,-213 1,-425 1,-637 -77,56 -231,365 -314,503 -107,176 -256,150 -598,250 -70,21 -151,43 -212,60 -118,32 -150,16 -208,95z"/>
   <path class="fil1" d="M4263 3351c124,256 251,370 402,584 -297,158 -587,361 -871,596 -101,84 -219,150 -328,225 -211,-229 -248,-355 -400,-584 99,-68 194,-127 292,-198 223,-163 489,-313 696,-482 69,-56 135,-93 209,-141z"/>
   <path class="fil0" d="M5116 2513c0,647 -6,1006 31,1635 13,220 -185,1166 -230,1435 -41,243 -316,1709 -316,1894 0,143 149,255 311,273l86 0c93,-11 183,-55 246,-145 74,-105 180,-863 209,-1032 37,-222 81,-456 121,-696 31,-187 113,-506 117,-701l121 0 0 2180c0,241 145,368 303,394l121 0c141,-23 265,-127 274,-301l-2 -1818c0,-818 0,-1635 0,-2452 212,141 274,504 390,851 52,155 98,307 154,451 204,517 698,271 698,-61 0,-178 -200,-642 -262,-829 -280,-850 -142,-593 -866,-1313 -307,-305 -319,-492 -780,-492 -421,0 -726,303 -726,727z"/>
   <path class="fil0" d="M2210 3663l353 161c132,66 251,111 374,171 191,95 590,342 768,43 366,-613 -830,-682 -1043,-979 -237,-329 -579,-1131 -910,-1269 -478,-199 -964,152 -995,511 -29,328 60,1027 60,1544 0,677 -25,1413 -112,2066l-71 1019c-27,348 -140,744 221,814 11,2 22,4 32,6l151 0c300,-56 259,-469 281,-619 21,-139 32,-384 41,-503l123 -1512c100,73 62,31 61,393l0 1423c0,323 -54,653 164,775 32,18 83,35 139,43l125 0c135,-20 265,-112 270,-362 25,-1253 -32,-2511 -32,-3725z"/>
   <path class="fil0" d="M4632 817c0,64 48,262 71,322 69,178 223,338 392,426 574,299 1202,-189 1202,-657 0,-604 -360,-883 -744,-908l-116 0c-407,26 -805,326 -805,817z"/>
   <path class="fil0" d="M636 817c0,412 348,829 820,843 455,14 845,-346 845,-903 0,-382 -375,-757 -757,-757 -306,0 -442,21 -675,264 -133,139 -233,349 -233,553z"/>
   <path class="fil0" d="M0 4843c0,281 501,383 637,122 146,-282 -1,-2167 -1,-2513 -70,51 -539,844 -570,943 -60,187 -66,1159 -66,1448z"/>
  </g>
 </g>
</svg>
