<?xml version="1.0" encoding="UTF-8"?>
<!DOCTYPE svg PUBLIC "-//W3C//DTD SVG 1.1//EN" "http://www.w3.org/Graphics/SVG/1.1/DTD/svg11.dtd">
<!-- Creator: CorelDRAW X8 -->
<svg xmlns="http://www.w3.org/2000/svg" xml:space="preserve" width="7.28893in" height="8.31644in" version="1.1" style="shape-rendering:geometricPrecision; text-rendering:geometricPrecision; image-rendering:optimizeQuality; fill-rule:evenodd; clip-rule:evenodd"
viewBox="0 0 7729 8818"
 xmlns:xlink="http://www.w3.org/1999/xlink">
 <defs>
  <style type="text/css">
   <![CDATA[
    .str0 {stroke:white;stroke-width:417.45}
    .fil2 {fill:none}
    .fil0 {fill:#144372}
    .fil1 {fill:#F36065}
   ]]>
  </style>
   <clipPath id="id0">
    <path d="M5935 5230c990,0 1794,803 1794,1794 0,991 -804,1794 -1794,1794 -991,0 -1794,-803 -1794,-1794 0,-991 803,-1794 1794,-1794z"/>
   </clipPath>
 </defs>
 <g id="Layer_x0020_1">
  <metadata id="CorelCorpID_0Corel-Layer"/>
  <path class="fil0" d="M2855 3487c-69,61 -197,95 -442,304 -368,243 -643,291 -1236,454 -801,219 -1350,1045 -1127,3347l6603 100 617 -257c42,-565 -284,-2183 -337,-2468 -95,-512 -641,-574 -1268,-808 -432,-161 -365,-89 -630,-390 -186,-211 -476,-177 -350,-688 150,-614 363,-660 465,-1085 66,-279 9,-249 -36,-451 -118,-529 228,-1107 -740,-1343 -211,-52 -718,-505 -1553,144 -447,347 -517,837 -493,1595 10,337 190,500 313,712 96,167 226,640 214,834z"/>
  <path class="fil1" d="M5935 5230c990,0 1794,803 1794,1794 0,991 -804,1794 -1794,1794 -991,0 -1794,-803 -1794,-1794 0,-991 803,-1794 1794,-1794z"/>
  <g style="clip-path:url(#id0)">
   <g id="_2001475173184">
    <polyline id="1" class="fil2 str0" points="4733,6942 5825,7894 7799,6012 "/>
   </g>
  </g>
  <path class="fil2" d="M5935 5230c990,0 1794,803 1794,1794 0,991 -804,1794 -1794,1794 -991,0 -1794,-803 -1794,-1794 0,-991 803,-1794 1794,-1794z"/>
 </g>
</svg>
