<?xml version="1.0" encoding="UTF-8"?>
<!DOCTYPE svg PUBLIC "-//W3C//DTD SVG 1.1//EN" "http://www.w3.org/Graphics/SVG/1.1/DTD/svg11.dtd">
<!-- Creator: CorelDRAW X8 -->
<svg xmlns="http://www.w3.org/2000/svg" xml:space="preserve" width="7.45715in" height="9.0962in" version="1.1" style="shape-rendering:geometricPrecision; text-rendering:geometricPrecision; image-rendering:optimizeQuality; fill-rule:evenodd; clip-rule:evenodd"
viewBox="0 0 7457 9096"
 xmlns:xlink="http://www.w3.org/1999/xlink">
 <defs>
  <style type="text/css">
   <![CDATA[
    .fil0 {fill:#144372}
    .fil1 {fill:#F36065}
   ]]>
  </style>
 </defs>
 <g id="Layer_x0020_1">
  <metadata id="CorelCorpID_0Corel-Layer"/>
  <g id="_2002297075056">
   <path class="fil0" d="M2983 4549c445,0 423,665 1416,0 222,148 301,215 672,223 162,306 431,557 522,895 -868,0 -922,562 -1865,1193 -650,-435 -463,-416 -806,-685 -584,-457 -457,-508 -1058,-508 63,-270 245,-491 427,-692 94,-105 563,-426 692,-426zm2013 -2759c173,126 379,1014 20,1582 -156,198 -414,314 -766,396 -208,-140 -373,-345 -634,149 85,161 142,235 462,132l251 -184 596 -262c-128,372 -874,1004 -1346,878 -523,-142 -862,-518 -1035,-985 -200,-541 -209,-1259 -104,-1802 163,-846 524,-137 1437,-575l286 236c325,245 369,219 565,479 154,203 102,190 343,254 -68,-136 -58,-93 -75,-298zm-75 -150l75 150 -75 -150zm0 0l-74 0 62 -87 12 87zm-3206 150c-591,13 -376,32 -376,1330 60,40 144,44 223,84 237,122 -39,121 119,335 151,205 -47,301 407,339 -87,164 -135,329 -276,469 -220,218 -284,97 -470,351 288,24 241,74 597,74 -160,218 -375,228 -870,473 -371,183 -543,321 -744,673 -232,405 -325,1997 -325,2657 1307,692 6138,698 7457,0l0 -970c-183,-2433 -675,-2075 -1888,-2735 -96,-52 -71,-50 -126,-98 378,0 384,-50 672,-74 -248,-338 -619,-188 -672,-820 390,-104 172,-121 333,-339 46,-219 59,-201 375,-258 0,-1298 182,-1478 -409,-1491 -62,-742 -784,-1790 -1865,-1790 -588,0 -1118,43 -1567,595 -237,291 -555,713 -595,1195z"/>
   <path class="fil0" d="M2684 5220c65,773 1545,961 2088,149 18,-63 7,-111 -23,-151 -23,-31 -86,-64 -137,-64 -310,77 -538,367 -936,333 -617,-53 -550,-439 -992,-267z"/>
   <path class="fil1" d="M5813 1790l180 0c139,0 252,113 252,251l0 1044c0,139 -113,252 -252,252l-180 0c-39,0 -71,-32 -71,-71l0 -1405c0,-39 32,-71 71,-71z"/>
   <path class="fil1" d="M1680 1790l-180 0c-139,0 -252,113 -252,251l0 1044c0,139 113,252 252,252l180 0c39,0 71,-32 71,-71l0 -1405c0,-39 -32,-71 -71,-71z"/>
   <path class="fil1" d="M5742 2811c0,0 -832,691 -1492,843 0,0 -417,-189 -629,107 -179,250 174,421 315,403 164,-20 311,-100 356,-234 649,-330 1450,-761 1450,-761 0,-30 68,0 74,-36 15,-91 -22,-256 -22,-331 0,-15 -52,23 -52,9z"/>
  </g>
 </g>
</svg>
