<?xml version="1.0" encoding="UTF-8"?>
<!DOCTYPE svg PUBLIC "-//W3C//DTD SVG 1.1//EN" "http://www.w3.org/Graphics/SVG/1.1/DTD/svg11.dtd">
<!-- Creator: CorelDRAW X8 -->
<svg xmlns="http://www.w3.org/2000/svg" xml:space="preserve" width="7.60751in" height="7.62021in" version="1.1" style="shape-rendering:geometricPrecision; text-rendering:geometricPrecision; image-rendering:optimizeQuality; fill-rule:evenodd; clip-rule:evenodd"
viewBox="0 0 7607 7620"
 xmlns:xlink="http://www.w3.org/1999/xlink">
 <defs>
  <style type="text/css">
   <![CDATA[
    .fil2 {fill:#144372}
    .fil1 {fill:#F36065}
    .fil3 {fill:white}
    .fil0 {fill:#144372;fill-rule:nonzero}
   ]]>
  </style>
 </defs>
 <g id="Layer_x0020_1">
  <metadata id="CorelCorpID_0Corel-Layer"/>
  <g id="_2002338228400">
   <polygon class="fil0" points="3237,3691 7496,3719 7496,3941 3236,3913 "/>
   <path class="fil0" d="M3239 2260c678,19 1295,-46 1838,-215 536,-167 999,-436 1373,-830l161 153c-401,423 -896,712 -1468,890 -566,176 -1208,243 -1909,224l5 -222z"/>
   <path class="fil0" d="M3234 5125c701,-19 1343,49 1909,225 572,178 1067,467 1468,889l-161 153c-374,-393 -837,-663 -1373,-830 -543,-169 -1160,-233 -1838,-215l-5 -222z"/>
   <path class="fil0" d="M3867 30c388,361 643,849 802,1481 156,620 221,1381 232,2300l-222 3c-11,-901 -74,-1646 -226,-2249 -149,-590 -383,-1042 -738,-1372l152 -163z"/>
   <path class="fil0" d="M3824 5c698,220 1328,696 1775,1393 405,631 659,1444 676,2413l-222 3c-16,-924 -257,-1698 -641,-2296 -418,-652 -1005,-1096 -1654,-1300l66 -213z"/>
   <path class="fil0" d="M3715 7433c355,-330 589,-783 738,-1373 152,-603 215,-1347 226,-2249l222 3c-11,920 -76,1680 -232,2300 -159,632 -414,1120 -802,1481l-152 -162z"/>
   <path class="fil0" d="M3758 7408c649,-205 1236,-649 1654,-1300 384,-599 625,-1373 641,-2297l222 3c-17,969 -271,1782 -676,2414 -447,697 -1077,1172 -1775,1392l-66 -212z"/>
   <path class="fil1" d="M3804 3804l0 3692c-2039,0 -3693,-1653 -3693,-3692 0,-2034 1646,-3685 3680,-3693l13 3693z"/>
   <path class="fil2" d="M2145 3541c499,0 903,404 903,902 0,499 -404,903 -903,903 -499,0 -903,-404 -903,-903 0,-498 404,-902 903,-902zm-14 -1194c-163,0 -346,49 -472,179 -98,100 -164,254 -164,480l0 362c189,-115 412,-181 650,-181 227,0 439,60 623,165l0 -346c0,-226 -66,-380 -164,-480 -126,-130 -309,-179 -473,-179zm-971 1316l0 -657c0,-323 105,-554 260,-713 198,-203 472,-280 711,-280 240,0 514,77 712,280 155,159 259,390 259,713l0 624c187,219 300,503 300,813 0,694 -563,1257 -1257,1257 -694,0 -1257,-563 -1257,-1257 0,-295 102,-566 272,-780z"/>
   <path class="fil3" d="M2145 3695c413,0 748,335 748,748 0,414 -335,749 -748,749 -413,0 -748,-335 -748,-749 0,-413 335,-748 748,-748z"/>
   <circle class="fil2" cx="2145" cy="4215" r="227"/>
   <rect class="fil2" x="2056" y="4304" width="178" height="677" rx="62" ry="62"/>
   <path class="fil0" d="M3804 0c1050,0 2001,426 2689,1114 689,688 1114,1639 1114,2690 0,1050 -425,2001 -1114,2689 -688,689 -1639,1114 -2689,1114 -1051,0 -2002,-425 -2690,-1114 -688,-688 -1114,-1639 -1114,-2689 0,-1051 426,-2002 1114,-2690 688,-688 1639,-1114 2690,-1114zm2532 1272c-648,-648 -1543,-1049 -2532,-1049 -989,0 -1884,401 -2532,1049 -648,648 -1049,1543 -1049,2532 0,989 401,1884 1049,2532 648,648 1543,1049 2532,1049 989,0 1884,-401 2532,-1049 648,-648 1049,-1543 1049,-2532 0,-989 -401,-1884 -1049,-2532z"/>
  </g>
 </g>
</svg>
