<?xml version="1.0" encoding="utf-8"?>
<!-- Generator: Adobe Illustrator 22.1.0, SVG Export Plug-In . SVG Version: 6.00 Build 0)  -->
<svg version="1.1" id="Layer_1" xmlns="http://www.w3.org/2000/svg" xmlns:xlink="http://www.w3.org/1999/xlink" x="0px" y="0px"
	 viewBox="0 0 100 100" style="enable-background:new 0 0 100 100;" xml:space="preserve">
<style type="text/css">
	.st0{fill:#144372;}
	.st1{fill:#F36065;}
</style>
<g>
	<path class="st0" d="M34.3,33.7C17,33.7,15,45.6,12.4,46.9c-3.3,2-5.3,2.3-8,6.3c-5.5,9-2.9,19.1,5.1,24.1c6,4,17.6,2.7,25.7,2.7
		c9.3,0,18.9,0,28.4,0c7.3,0,20.6,1,26.1-2c14.6-8,9.9-30.4-6.3-33c-1-9.3-2.7-13.6-8.6-18.9c-1-1-1.7-1.3-3-2.3
		c-2.7-1.7-4.6-2.7-8-3.3C52.5,17.9,38.6,23.5,34.3,33.7z"/>
	<path class="st1" d="M39.7,48.2C34,48.8,35,47.8,35,57.8C35,76,31.7,73,50.3,73c19.6,0,16.9,2.3,16.9-11.6c0-12.6,1-12.9-4.3-13.3
		c-1.3-5,1-6.3-2.7-11.3c-3-4.6-9.3-6.3-14.6-3.3C39,37.2,40,43.5,39.7,48.2z"/>
	<path class="st0" d="M43.4,47.7H59C60.9,29.1,40.1,32.1,43.4,47.7z"/>
	<path class="st0" d="M48.3,67.2h5.3c0-3-1-6.6,0-8.6c1.7-2.7,0.7-5.6-2.3-6c-3.3,0-5,3-3.3,5.6C49.7,60.9,48.7,61.9,48.3,67.2z"/>
</g>
</svg>
