<?xml version="1.0" encoding="UTF-8"?>
<!DOCTYPE svg PUBLIC "-//W3C//DTD SVG 1.1//EN" "http://www.w3.org/Graphics/SVG/1.1/DTD/svg11.dtd">
<!-- Creator: CorelDRAW X8 -->
<svg xmlns="http://www.w3.org/2000/svg" xml:space="preserve" width="6.6425in" height="6.64955in" version="1.1" style="shape-rendering:geometricPrecision; text-rendering:geometricPrecision; image-rendering:optimizeQuality; fill-rule:evenodd; clip-rule:evenodd"
viewBox="0 0 6902 6909"
 xmlns:xlink="http://www.w3.org/1999/xlink">
 <defs>
  <style type="text/css">
   <![CDATA[
    .fil1 {fill:#144372}
    .fil0 {fill:#F36065}
   ]]>
  </style>
 </defs>
 <g id="Layer_x0020_1">
  <metadata id="CorelCorpID_0Corel-Layer"/>
  <path class="fil0" d="M3934 510l-1162 0 0 615 3485 0 0 2870 -3485 0 0 615 478 0 820 0 479 0 683 0c845,0 1640,152 1640,-273 0,-4366 305,-3827 -1025,-3827 -433,0 -866,0 -1298,0 -105,-393 -526,-373 -615,0z"/>
  <path class="fil0" d="M3592 4332l103 0c129,0 209,106 179,235l-497 2108c-31,129 -161,234 -290,234l-102 0c-129,0 -210,-105 -179,-234l497 -2108c30,-129 161,-235 289,-235z"/>
  <path class="fil0" d="M5567 4332l-103 0c-129,0 -209,106 -179,235l497 2108c31,129 161,234 290,234l102 0c129,0 210,-105 179,-234l-497 -2108c-30,-129 -161,-235 -289,-235z"/>
  <path class="fil1" d="M607 735c0,-406 329,-735 735,-735 406,0 735,329 735,735 0,406 -329,735 -735,735 -406,0 -735,-329 -735,-735zm3518 997l-2241 0 -312 409 -110 -215c35,-18 65,-40 84,-60 34,-34 81,-154 -30,-228 -42,-28 -119,-36 -174,-33 -55,-3 -133,5 -174,33 -111,74 -65,194 -30,228 19,20 49,42 84,60l-114 222 -332 -416 -412 0c-201,0 -364,163 -364,363l0 1908c0,196 147,370 343,381 112,6 213,-38 284,-113l0 2140c0,224 181,405 405,405l888 0c223,0 405,-181 405,-405l0 -3851c0,-56 45,-101 101,-101l1690 0c173,0 331,-118 365,-288 47,-234 -130,-439 -356,-439z"/>
  <g id="_2002358063232">
  </g>
  <g id="_2002358062528">
  </g>
  <g id="_2002358063552">
  </g>
  <g id="_2002358063904">
  </g>
  <g id="_2002358064192">
  </g>
  <g id="_2002358065024">
  </g>
  <g id="_2002358064704">
  </g>
  <g id="_2002358063424">
  </g>
  <g id="_2002358067360">
  </g>
  <g id="_2002358065536">
  </g>
  <g id="_2002358065952">
  </g>
  <g id="_2002358066112">
  </g>
  <g id="_2002358066336">
  </g>
  <g id="_2002358067296">
  </g>
  <g id="_2002358068736">
  </g>
 </g>
</svg>
